/* XPM */
static char *result[] = {
/* columns rows colors chars-per-pixel */
"32 32 7 1 ",
"  c black",
". c #68541F",
"X c #807020",
"o c #AA8834",
"O c #C0A040",
"+ c #F2C44D",
"@ c None",
/* pixels */
"@@@@@@@@@@@@@@@@@@@@@@@@@@@@@@@@",
"@@@@@@@@@@@@@@@@@@@@@@@@@@@@@@@@",
"@@@@@@@@@@@@@@@@@@@@@@@@@@@@@@@@",
"@@@@@@@@@@@@@@@@@@@@@@@@@@@@@@@@",
"@@@@@@@@@@@@@@@@@@@@@@@@@@@@@@@@",
"@@@@@@@@@@@@@@@@@@@@@@@@@@@@@@@@",
"@@@@@@@@@@@@@@@@@@@@@@@@@@@@@@@@",
"@@@@@@@@@@@@@@@@@@@@@@@@@@@@@@@@",
"@@@@@@@@@@@@@@@@@@@@@@@@@@@@@@@@",
"@@@@@@@@@@@@@@@@@@@@@@@@@@@@@@@@",
"@@@@@@@++@@@@@@@@@@@@@@@@@@@@@@@",
"@@@@@@+OOO @@@@@@@@@@@@@@@@@@@@@",
"@@@@@@+OOO @@@@@@@@@@@@@@@@@@@@@",
"@@@@++OXXO @@@@@@@@@@@@@@@@@@@@@",
"@@@+OOX  ++++++++++++++++++o @@@",
"@@@XOOX  +OOOOOOOOOOOOOOOOOX @@@",
"@@@ XXO++OXXXXXXXXX+O.+O.+OX @@@",
"@@@   XOOX         +O XX +OX @@@",
"@@@@@ XOOX @@@@@@@ +O    +OX @@@",
"@@@@@@ XX  @@@@@@@           @@@",
"@@@@@@    @@@@@@@@@@  @@    @@@@",
"@@@@@@@@@@@@@@@@@@@@@@@@@@@@@@@@",
"@@@@@@@@@@@@@@@@@@@@@@@@@@@@@@@@",
"@@@@@@@@@@@@@@@@@@@@@@@@@@@@@@@@",
"@@@@@@@@@@@@@@@@@@@@@@@@@@@@@@@@",
"@@@@@@@@@@@@@@@@@@@@@@@@@@@@@@@@",
"@@@@@@@@@@@@@@@@@@@@@@@@@@@@@@@@",
"@@@@@@@@@@@@@@@@@@@@@@@@@@@@@@@@",
"@@@@@@@@@@@@@@@@@@@@@@@@@@@@@@@@",
"@@@@@@@@@@@@@@@@@@@@@@@@@@@@@@@@",
"@@@@@@@@@@@@@@@@@@@@@@@@@@@@@@@@",
"@@@@@@@@@@@@@@@@@@@@@@@@@@@@@@@@"
};
