/* XPM */
static char *result[] = {
/* columns rows colors chars-per-pixel */
"32 32 16 1 ",
"  c black",
". c #101010",
"X c #202020",
"o c gray19",
"O c #68541F",
"+ c gray25",
"@ c #505050",
"# c #606060",
"$ c gray44",
"% c #AA8834",
"& c #F2C44D",
"* c #F8E060",
"= c #808080",
"- c #909090",
"; c #A0A0A0",
": c white",
/* pixels */
"                                ",
" $;;=$@X$;-=@o=-;$@o=-;=$+X=-$+ ",
" ==$@@+X@@@++X@@@@+o-=-$$@X-;$@ ",
" @++ooXXXoooXXoXXoo$=$@@@+.=-$@ ",
" ooXX;-=$@X$=$@X$@o@@+ooX..o$$@ ",
" $=$X@@@++X;$$@X=$@ooXX$=$@X=$+ ",
" =-$oooXXXX@@++o$;=-$@o=;$@X@@+ ",
" @$-=$+o-$oXXoooo@@@++X=$$+XXXX ",
" +@$;$@X$=@X$=-$@oooXXXo@++o$$@ ",
" ooo+@+X-$@X;$@@+X$=;$@XXoo$=;@ ",
" =$@ooXX@@+o@+XXXX@@=$+X+@@$-$@ ",
" -=@o$=ooo+XXX    XX@@XoXXXo=$+ ",
" ;$+X=-=@XXX   *    XX@$$;@X$$+ ",
" @@+X$=$+X    O*O     X@=$@X@+X ",
" XXXX@@+X     O*O      X=@oXXXX ",
" =$@oXXoX    O&*&O     X=@o$=$@ ",
" $-=$@X@X   O%&*&%     X=@X;=$@ ",
" =$=$@o@X   O%&*&%O    X$@X$-$@ ",
" @@++o$+X  O%%&*&%%O   XoXXo=$@ ",
" oXXXo=+X O%%%&:&%%%O  X$$@o$$@ ",
" $$@X+++XO&&&&&:&&&&&OOX$$@X@@@ ",
" =-@oXXo*****:::::******=@oXooX ",
" -=$@X$@XO&&&&&:&&&&&OOX;@X$=$@ ",
" @@++X;@XOO%%%&*&%%%OO.X-@X-$$@ ",
" oXXXo-@XoOO%%&*&%%OOo+X$+X=;=@ ",
" $@X$=$+XooOO%&*&%OOoooX$+o$=$+ ",
" $@o@@++X@@@OO&*&OO@@@@XooXo$$@ ",
" ;+oXXXoX#@#@OO*OO@#@#@X;$@X@@+ ",
" -$@X;$@X@@@@@O*O@@@@@@X-$@XXoX ",
" $$+o=$@X######*#######X=$+X=$+ ",
" @++o@@+X$#$#$#*#$#$#$#X@++o@@+ ",
"                                "
};
