/* XPM */
static char *result[] = {
/* columns rows colors chars-per-pixel */
"32 32 12 1 ",
"  c #101010",
". c #202020",
"X c gray19",
"o c gray25",
"O c #505050",
"+ c #606060",
"@ c gray44",
"# c #808080",
"$ c #909090",
"% c #A0A0A0",
"& c gray69",
"* c #C0C0C0",
/* pixels */
".   ... ...... .. .. .  .  . . .",
".#$&*&%*&$*&*&*$%&%$%$%&*&%*&%$@",
" &*%&%&%%&%*$%&%$%$%&%&*&%&%%*@O",
".%$@#@#@$%$@@#$##@@$#+++@@+@@@Xo",
".&%@$#$###@#@@#@@@+@@+OOO##@+@oX",
" *$#@#%$%$#@@#@#$@++#+@+@#$#O#Xo",
" &%@#%$#$##$##@%#+@+@#@##@OO@@OX",
".&*#$%$@+#@#@@$#@++O#@#++@+++Ooo",
".**####@+@##@+#$@+O@@#$O@@#@+Ooo",
" %$@@@#@@++@#@$@++O@#@+O+O@+oooX",
" *%$#@#$###O%@###O@#@+OO+#@O+OoX",
".%&#@#$#@%$@#++#@++@+OO+@@OoOooo",
".&$#@@@++@##+O@#OO+@@#@oOoO+oOXO",
" *$#$@#@@#+#+O@#@+@#+@OOoO+@@@oX",
" *&@#@@$#+O@@+O+@O++@OO+Oo@Oo+XX",
" &$#$#@#@@++#$@@+OO@+O@OO++oO+OX",
" %$@@@+@#@@@@##@OO+OO++o+@O@+OoX",
" *$@#$##@@++@+$O+@#@++@O@O+OooXo",
".*%$#@@@+O+@++#O+O@+@O+@O+O+OooX",
".$%+++@+O@O+O+@@O@#O+@+O@@O+@OXo",
" %*+@+O+O@+O+O@++++@@O++OO@@++oo",
".*$+#@+OO+@++@+OO@@++OO@+OOoOoOo",
".$$@+@@++@OO@#@+@O+OO@O+++O++OoO",
" %@#@+@@$#O@+O+@@OO+OO+O@O@@OooX",
".*$#+@+@+@@@+@O@O++O+@+O@OOO++Xo",
" %$+@+O@O#++@@O+@OO@O@@O@@++OOOo",
".*$+O@++@+@+@O++O@+@+@+OO@O@ooOO",
".%%+@+O++O@@O++O+++O@O++@@OOOOoX",
".$$++O+OOO@+O+OoO+@o@+O++O+@@+XO",
" %$O@@oO++O@+OoOO@+Oo+oO+O@@+oOX",
" $ooooXoOoXoOoXoOOXooXOoOoOXOoXo",
" @oXoXXXoXXoXXXoXXooXooXXXXXoXoX"
};
