/* XPM */
static char *result[] = {
/* columns rows colors chars-per-pixel */
"32 32 9 1 ",
"  c #101010",
". c #202020",
"X c gray19",
"o c gray25",
"O c #505050",
"+ c #606060",
"@ c gray44",
"# c #808080",
"$ c #909090",
/* pixels */
"                                ",
" @$#$ @$#@@ o+++X $@#@$$$@+ @##@",
" #++OX@+++X +Xooo @+oO++O+O @OOo",
" #+OXX@+oXo Oo.o. @OXoOOooO #OoX",
"    X X           X X  .        ",
"X $@$@+@+ $#+$@#@+ $#+@+ oO++OX.",
"X $+oOOoo @OOoOOOo @OOoO +XXoooo",
"X #++oOooX+oOoooOo.@ooOo.Oo.XXo.",
"       XX  X X    .. . .X       ",
" #@+@@@+X@@$@$@+XoOOOo +@$#$#+@+",
" @++OOoX ++oooXX Ooooo @OoOoOOXo",
" @+OoOXo +OoXoOo O.ooX +oOoOoXoX",
"                X X           X ",
"X OoO+++OOX. +@#$+ $#$@++ +@@+++",
"X OX.oXooo.. @OOoO @OOOoO @OOooO",
". Oooo.ooooX @OoOo @OoOXoX+OoOoo",
"                X X      X     X",
" #$$#+#@@+ +@@$$++$ $@+@+@ $@@++",
" @+OooOOoO @OoOOoOO @OoOoo @OooO",
" @+oOOooOOX+OOoOOoo @OOOoO @oOOo",
"      XX   X    X               ",
"X @#@+X+$@$@+ +@$$@+@+ OO+++O+OO",
"X $+Oo #OOOOo $OOoOooo OooooXooX",
"X @+oX @OoXoX @OoOoooO .oXXXo.o.",
"                X  XX           ",
" @$@ OO+O. +@$$##@@$#@+@+ +@@+++",
" $+o +oooo @OoOOoOooooOOoX@OoXoO",
" @OX X..o. @oXOoooooXoOoX @oXoOo",
"                        XX      ",
" X#$@+ o++OX. @$+$@@@$@+ @@$$@+O",
" X@ooX +Ooooo @OooOoOOoo @OoooOo",
" XoXXX O.ooo. oXXXXOXXXX OXXXXXX"
};
